<?xml version="1.0"?>
<svg xmlns="http://www.w3.org/2000/svg" height="512px" viewBox="0 -77 512.00056 512" width="512px"><g><path d="m249.53125 220.957031c0 1.453125.089844 2.882813.191406 4.308594l.101563 1.792969" data-original="#000000" class="active-path" data-old_color="#000000" fill="#FFFFFF"/><path d="m483.136719 138.953125c-14.714844-18.320313-34.074219-32.363281-56.058594-40.664063-29.832031-11.355468-62.792969-11.355468-92.625 0-21.984375 8.304688-41.347656 22.347657-56.070313 40.664063-18.757812 23.207031-28.945312 52.167969-28.851562 82.003906 0 1.453125.089844 2.882813.195312 4.308594l.101563 1.792969c3.214844 72.3125 64.445313 128.332031 136.757813 125.113281 67.8125-3.011719 122.101562-57.304687 125.117187-125.113281l.113281-1.792969c.101563-1.425781.183594-2.855469.183594-4.308594.089844-29.839843-10.101562-58.796875-28.863281-82.003906zm-12.789063 52.902344 8.558594-26.375c7.488281 13.128906 12.207031 27.660156 13.859375 42.6875zm-4.789062-45.101563-13.410156 41.285156-25.820313 8.390626-36.320313-26.359376v-27.167968l35.117188-25.453125c15.496094 6.625 29.3125 16.640625 40.433594 29.304687zm-105.246094 102.34375-12.632812-38.886718 33.085937-24.03125 33.074219 24.03125-12.632813 38.886718zm42.84375-138.625-22.390625 16.300782-22.382813-16.265626c14.765626-3.066406 30.007813-3.066406 44.773438 0zm-66.753906 6.976563 35.121094 25.496093v27.117188l-36.386719 26.421875-25.765625-8.363281-13.398438-41.375c11.125-12.660156 24.9375-22.667969 40.429688-29.296875zm-53.785156 48.058593 8.574218 26.375-22.464844 16.320313c1.664063-15.03125 6.394532-29.5625 13.890626-42.695313zm21.035156 40.164063 25.875 8.390625 13.863281 42.679688-15.941406 21.949218h-43.4375c-8.640625-14.5-13.898438-30.757812-15.386719-47.566406zm21.753906 91.496094 8.539062 26.273437c-13.707031-6.246094-26.015624-15.179687-36.199218-26.273437zm30.40625 33.628906-13.402344-41.253906 15.941406-21.960938h44.871094l15.941406 21.949219-13.445312 41.265625c-16.410156 3.871094-33.496094 3.871094-49.90625 0zm71.816406-7.394531 8.53125-26.273438h27.671875c-10.199219 11.101563-22.519531 20.042969-36.238281 26.292969zm49.992188-44.757813h-43.4375l-15.953125-21.949219 13.863281-42.695312 25.804688-8.394531 35.007812 25.519531c-1.472656 16.796875-6.710938 33.042969-15.324219 47.539062zm0 0" data-original="#000000" class="active-path" data-old_color="#000000" fill="#FFFFFF"/><path d="m219.828125 283.800781-62.347656-255.601562c-3.832031-16.671875-18.769531-28.414063-35.875-28.19531275h-.464844c-17.285156-.03906245-32.207031 12.10156275-35.679687 29.03906275l-55.886719 254.757812h-20.332031c-5.105469 0-9.242188 4.140625-9.242188 9.242188v55.453125c0 5.101562 4.136719 9.242187 9.242188 9.242187h221.804687c5.105469 0 9.242187-4.136719 9.242187-9.242187v-55.453125c0-5.101563-4.136718-9.242188-9.242187-9.242188zm-116.320313-250.796875c1.597657-8.550781 9.148438-14.691406 17.847657-14.515625 8.671875-.308593 16.324219 5.621094 18.195312 14.09375l7.144531 29.414063h-49.542968zm-10.414062 47.476563h58.113281l9.011719 36.96875h-75.195312zm-12.171875 55.453125h83.804687l9.019532 36.964844h-100.949219zm-12.179687 55.449218h109.515624l9.011719 36.96875h-126.613281zm-12.164063 55.453126h135.199219l9.019531 36.964843h-152.34375zm165.226563 92.417968h-203.320313v-36.96875h203.320313zm0 0" data-original="#000000" class="active-path" data-old_color="#000000" fill="#FFFFFF"/></g> </svg>
